<svg xmlns="http://www.w3.org/2000/svg" width="0" height="0" class="hidden">
  <symbol viewBox="0 0 22 23" id="close">
    <rect x="0.746948" y="0.539856" width="30" height="1" transform="rotate(45 0.746948 0.539856)" fill="currentColor"/>
    <rect width="30" height="1" transform="matrix(-0.707107 0.707107 0.707107 0.707107 21.2531 0.539856)" fill="currentColor"/>
  </symbol>
  <symbol viewBox="0 0 30 19" id="burger">
    <rect width="30" height="1" fill="currentColor"/>
    <rect y="9" width="30" height="1" fill="currentColor"/>
    <rect y="18" width="30" height="1" fill="currentColor"/>
  </symbol>
  <symbol viewBox="0 0 36 12" id="arrow">
    <path d="M0 6H35M35 6L30 1M35 6L30 11" stroke="white"/>
  </symbol>
  <symbol viewBox="0 0 24 24" id="in">
    <path d="M21.0176 2H3.51576C3.11376 2 2.72822 2.1597 2.44396 2.44396C2.1597 2.72822 2 3.11376 2 3.51576V21.0176C2 21.4196 2.1597 21.8051 2.44396 22.0894C2.72822 22.3736 3.11376 22.5333 3.51576 22.5333H21.0176C21.4196 22.5333 21.8051 22.3736 22.0894 22.0894C22.3736 21.8051 22.5333 21.4196 22.5333 21.0176V3.51576C22.5333 3.11376 22.3736 2.72822 22.0894 2.44396C21.8051 2.1597 21.4196 2 21.0176 2ZM8.12007 19.4918H5.03295V9.68574H8.12007V19.4918ZM6.57437 8.32683C6.22419 8.32486 5.88244 8.2192 5.59225 8.02319C5.30206 7.82717 5.07644 7.54959 4.94386 7.22547C4.81128 6.90135 4.77769 6.54522 4.84732 6.20202C4.91694 5.85883 5.08667 5.54395 5.33509 5.29712C5.5835 5.0503 5.89946 4.8826 6.2431 4.81517C6.58673 4.74775 6.94264 4.78363 7.2659 4.91829C7.58917 5.05295 7.86529 5.28034 8.05944 5.57178C8.25359 5.86323 8.35705 6.20565 8.35678 6.55583C8.36008 6.79029 8.31615 7.023 8.2276 7.24011C8.13905 7.45722 8.0077 7.65428 7.84137 7.81955C7.67504 7.98481 7.47714 8.1149 7.25946 8.20205C7.04179 8.28921 6.80879 8.33164 6.57437 8.32683ZM19.499 19.5004H16.4133V14.1432C16.4133 12.5633 15.7416 12.0756 14.8747 12.0756C13.9592 12.0756 13.0609 12.7657 13.0609 14.1831V19.5004H9.97378V9.69287H12.9426V11.0518H12.9825C13.2805 10.4486 14.3243 9.41767 15.917 9.41767C17.6396 9.41767 19.5004 10.4401 19.5004 13.4345L19.499 19.5004Z" fill="white"/>
  </symbol>
  <symbol viewBox="0 0 24 24" id="ig">
    <path d="M16.2644 1H7.47681C3.90548 1 1 3.90548 1 7.47681V16.2644C1 19.8357 3.90548 22.7412 7.47681 22.7412H16.2644C19.8357 22.7412 22.7412 19.8357 22.7412 16.2644V7.47681C22.7411 3.90548 19.8356 1 16.2644 1ZM20.554 16.2644C20.554 18.6335 18.6334 20.554 16.2644 20.554H7.47681C5.10772 20.554 3.18716 18.6335 3.18716 16.2644V7.47681C3.18716 5.10768 5.10772 3.18716 7.47681 3.18716H16.2644C18.6334 3.18716 20.554 5.10768 20.554 7.47681V16.2644Z" fill="white" stroke="white" stroke-width="0.2"/>
    <path d="M11.8699 6.4353C8.87284 6.4353 6.43457 8.87358 6.43457 11.8706C6.43457 14.8676 8.87284 17.3059 11.8699 17.3059C14.8669 17.3059 17.3052 14.8676 17.3052 11.8706C17.3052 8.87354 14.8669 6.4353 11.8699 6.4353ZM11.8699 15.1918C10.0356 15.1918 8.54871 13.7049 8.54871 11.8706C8.54871 10.0364 10.0357 8.54945 11.8699 8.54945C13.7041 8.54945 15.191 10.0364 15.191 11.8706C15.191 13.7048 13.7041 15.1918 11.8699 15.1918Z" fill="white" stroke="white" stroke-width="0.2"/>
    <path d="M17.3059 7.79412C18.0564 7.79412 18.6647 7.18576 18.6647 6.4353C18.6647 5.68484 18.0564 5.07648 17.3059 5.07648C16.5554 5.07648 15.9471 5.68484 15.9471 6.4353C15.9471 7.18576 16.5554 7.79412 17.3059 7.79412Z" fill="white"/>
  </symbol>
  <symbol viewBox="0 0 30 30" id="wa">
    <path d="M15 30C23.2843 30 30 23.2843 30 15C30 6.71573 23.2843 0 15 0C6.71573 0 0 6.71573 0 15C0 23.2843 6.71573 30 15 30Z" fill="currentColor"/>
    <path d="M11.4009 20.0094L11.658 20.1611C12.7379 20.7992 13.9761 21.1366 15.2387 21.1373H15.2414C19.1191 21.1373 22.275 17.9961 22.2765 14.1355C22.2771 12.2645 21.5461 10.5054 20.2178 9.18181C18.8895 7.85849 17.1234 7.12921 15.2439 7.12844C11.3634 7.12844 8.20741 10.2691 8.20595 14.1298C8.20544 15.4527 8.57717 16.7412 9.28151 17.8558L9.44892 18.1208L8.73804 20.7045L11.4009 20.0094ZM6.70593 22.7059L7.90673 18.3407C7.16606 17.0632 6.77642 15.614 6.77703 14.1294C6.77884 9.48465 10.5756 5.70587 15.2416 5.70587C17.5057 5.70684 19.6309 6.5841 21.229 8.17639C22.8269 9.76867 23.7067 11.8852 23.7059 14.1362C23.704 18.7806 19.9064 22.5601 15.2416 22.5601C15.2413 22.5601 15.2418 22.5601 15.2416 22.5601H15.238C13.8214 22.5596 12.4295 22.2059 11.1932 21.5346L6.70593 22.7059Z" fill="white"/>
    <path fill-rule="evenodd" clip-rule="evenodd" d="M13.7797 11.3019C13.6507 11.0147 13.5149 11.009 13.3922 11.0039C13.2917 10.9997 13.1768 10.9999 13.0621 10.9999C12.9472 10.9999 12.7606 11.0431 12.6029 11.2157C12.4449 11.3882 12 11.8054 12 12.6537C12 13.5022 12.6172 14.322 12.7032 14.4372C12.7894 14.5521 13.8947 16.3488 15.6452 17.04C17.1001 17.6144 17.3962 17.5001 17.7119 17.4713C18.0277 17.4426 18.7309 17.0543 18.8744 16.6517C19.018 16.2491 19.018 15.9039 18.9749 15.8319C18.9319 15.76 18.817 15.7168 18.6448 15.6307C18.4725 15.5444 17.6258 15.1272 17.4679 15.0697C17.31 15.0122 17.1952 14.9835 17.0803 15.1561C16.9655 15.3285 16.6357 15.7168 16.5352 15.8319C16.4347 15.9471 16.3342 15.9615 16.162 15.8752C15.9897 15.7887 15.435 15.6068 14.7769 15.0194C14.2649 14.5624 13.9193 13.9979 13.8188 13.8253C13.7183 13.6528 13.8081 13.5594 13.8944 13.4735C13.9718 13.3962 14.0667 13.2721 14.1528 13.1715C14.2388 13.0708 14.2674 12.9989 14.3249 12.8839C14.3823 12.7688 14.3536 12.6681 14.3106 12.5818C14.2674 12.4956 13.9327 11.6428 13.7796 11.3019" fill="white"/>
  </symbol>
  <symbol viewBox="0 0 30 30" id="tg">
    <path d="M15 30C23.2843 30 30 23.2843 30 15C30 6.71573 23.2843 0 15 0C6.71573 0 0 6.71573 0 15C0 23.2843 6.71573 30 15 30Z" fill="currentColor"/>
    <path d="M8.52198 14.6928L15.8802 11.6548C16.6066 11.3383 19.0698 10.3257 19.0698 10.3257C19.0698 10.3257 20.2067 9.88261 20.112 10.9586C20.0804 11.4016 19.8278 12.9523 19.5751 14.6295L18.7856 19.5979C18.7856 19.5979 18.7224 20.3258 18.1856 20.4524C17.6487 20.5789 16.7645 20.0093 16.6066 19.8827C16.4802 19.7878 14.238 18.3637 13.4169 17.6675C13.1959 17.4776 12.9432 17.0979 13.4485 16.6548C14.5854 15.6105 15.9434 14.313 16.7645 13.4902C17.1434 13.1105 17.5224 12.2244 15.9434 13.3004L11.4905 16.3067C11.4905 16.3067 10.9852 16.6232 10.0378 16.3384C9.09042 16.0536 7.98511 15.6738 7.98511 15.6738C7.98511 15.6738 7.22718 15.1991 8.52198 14.6928Z" fill="white"/>
  </symbol>
</svg>